<svg width="28" height="28" viewBox="0 0 28 28" fill="none" xmlns="http://www.w3.org/2000/svg">
<path d="M14.0308 28H13.9692C6.26666 28 0 21.7333 0 14.0308V13.9692C0 6.26668 6.26666 0 13.9692 0H14.0308C21.7333 0 28 6.26668 28 13.9692V14.0308C28 21.7333 21.7333 28 14.0308 28ZM13.9692 0.947771C6.78888 0.947771 0.947771 6.7889 0.947771 13.9692V14.0308C0.947771 21.2111 6.78888 27.0522 13.9692 27.0522H14.0308C21.2111 27.0522 27.0522 21.2111 27.0522 14.0308V13.9692C27.0522 6.7889 21.2111 0.947771 14.0308 0.947771H13.9692Z" fill="#EBEBEB"/>
<path d="M15.0079 10.762V12.4241H16.9516L16.6438 14.6631H15.0079V19.8217C14.6799 19.8698 14.3443 19.8949 14.0036 19.8949C13.6104 19.8949 13.2243 19.8618 12.8483 19.7976V14.6631H11.0557V12.4241H12.8483V10.3904C12.8483 9.12873 13.8151 8.10547 15.0084 8.10547V8.10654C15.0119 8.10654 15.0149 8.10547 15.0185 8.10547H16.9521V10.0419H15.6886C15.3131 10.0419 15.0084 10.3642 15.0084 10.7615L15.0079 10.762Z" fill="white"/>
</svg>
