<svg width="28" height="28" viewBox="0 0 28 28" fill="none" xmlns="http://www.w3.org/2000/svg">
<path d="M14.0308 28H13.9692C6.26666 28 0 21.7333 0 14.0308V13.9692C0 6.26665 6.26666 0 13.9692 0H14.0308C21.7333 0 28 6.26665 28 13.9692V14.0308C28 21.7333 21.7333 28 14.0308 28ZM13.9692 0.947771C6.78889 0.947771 0.947771 6.78888 0.947771 13.9692V14.0308C0.947771 21.2111 6.78889 27.0522 13.9692 27.0522H14.0308C21.2111 27.0522 27.0522 21.2111 27.0522 14.0308V13.9692C27.0522 6.78888 21.2111 0.947771 14.0308 0.947771H13.9692Z" fill="#EBEBEB"/>
<path d="M16.7046 8.84204H10.9822C9.40134 8.84204 8.11523 10.1281 8.11523 11.7091V16.9442C8.11523 18.5251 9.40134 19.8112 10.9822 19.8112H16.7046C18.2855 19.8112 19.5716 18.5251 19.5716 16.9442V11.7091C19.5716 10.1281 18.2855 8.84204 16.7046 8.84204ZM9.12663 11.7091C9.12663 10.686 9.9592 9.85342 10.9822 9.85342H16.7046C17.7277 9.85342 18.5602 10.686 18.5602 11.7091V16.9442C18.5602 17.9672 17.7277 18.7998 16.7046 18.7998H10.9822C9.9592 18.7998 9.12663 17.9672 9.12663 16.9442V11.7091Z" fill="white"/>
<path d="M13.8445 16.9923C15.3147 16.9923 16.5114 15.7963 16.5114 14.3255C16.5114 12.8547 15.3153 11.6587 13.8445 11.6587C12.3738 11.6587 11.1777 12.8547 11.1777 14.3255C11.1777 15.7963 12.3738 16.9923 13.8445 16.9923ZM13.8445 12.6707C14.7575 12.6707 15.5 13.4132 15.5 14.3261C15.5 15.2391 14.7575 15.9816 13.8445 15.9816C12.9316 15.9816 12.1891 15.2391 12.1891 14.3261C12.1891 13.4132 12.9316 12.6707 13.8445 12.6707Z" fill="white"/>
<path d="M16.7566 12.0887C17.1525 12.0887 17.4752 11.7667 17.4752 11.3702C17.4752 10.9736 17.1531 10.6516 16.7566 10.6516C16.3601 10.6516 16.0381 10.9736 16.0381 11.3702C16.0381 11.7667 16.3601 12.0887 16.7566 12.0887Z" fill="white"/>
</svg>
