<svg width="109" height="33" viewBox="0 0 109 33" fill="none" xmlns="http://www.w3.org/2000/svg">
<path d="M14.0773 32.5C11.1773 32.5 9.24395 30.8803 8.23334 27.6847L0.5 2.60123H5.0697L12.3637 26.5465C12.6712 27.5971 13.1985 28.1224 14.0773 28.1224C14.9561 28.1224 15.4834 27.5971 15.7909 26.5465L22.997 2.60123H27.6106L19.8773 27.6847C18.8667 30.8803 16.8894 32.5 14.0773 32.5Z" fill="black"/>
<path d="M33.8877 6.23461C32.3059 6.23461 31.0316 4.96512 31.0316 3.38919C31.0316 1.81327 32.3059 0.5 33.8877 0.5C35.4695 0.5 36.6998 1.81327 36.6998 3.38919C36.6998 4.96512 35.4695 6.23461 33.8877 6.23461ZM31.7347 10.4808H36.0847V31.9309H31.7347V10.4808Z" fill="black"/>
<path d="M50.9488 14.1142C46.7306 14.1142 44.6215 17.5725 44.6215 21.5561V31.9309H40.2715V21.1183C40.2715 14.8584 44.0063 9.95554 50.9488 9.95554C57.9791 9.95554 61.8018 14.8584 61.8018 21.0746V31.9309H57.4518V21.5999C57.4518 17.5725 55.2548 14.1142 50.9488 14.1142Z" fill="black"/>
<path d="M75.2661 32.4124C69.0707 32.5 64.0176 27.3782 64.0176 21.1621C64.0176 14.9897 69.0707 9.91177 75.2661 9.95554C79.2207 9.95554 82.8676 11.7503 84.8449 15.6026L81.2419 17.6163C79.9676 15.2962 77.8146 14.0705 75.2661 14.0705C71.4873 14.0705 68.3676 17.2661 68.3676 21.1621C68.3676 25.1019 71.4873 28.3413 75.2661 28.3413C77.8146 28.3413 79.9676 27.1156 81.2419 24.7955L84.8449 26.7654C82.8676 30.6614 79.2207 32.4124 75.2661 32.4124Z" fill="black"/>
<path d="M104.555 29.3C99.5565 33.5119 92.7681 33.0398 88.4836 27.9926C84.4829 23.2797 84.6085 16.5807 89.5404 12.4254C94.5058 8.2417 100.628 9.21753 104.516 13.7968L105.651 15.1338L92.4989 26.2148C95.2513 28.7115 99.0726 28.8745 102.025 26.3869C104.038 24.6908 105.112 22.2953 104.553 19.6706L108.209 18.8258C109.15 22.849 107.776 26.5863 104.555 29.3ZM90.8172 23.9625L100.513 15.7931C98.1658 13.299 94.7497 13.1387 92.0321 15.4285C89.2474 17.7747 89.0814 21.2398 90.8172 23.9625Z" fill="black"/>
</svg>
