<svg width="28" height="28" viewBox="0 0 28 28" fill="none" xmlns="http://www.w3.org/2000/svg">
<path d="M14.0308 28H13.9692C6.26666 28 0 21.7333 0 14.0308V13.9692C0 6.26667 6.26666 0 13.9692 0H14.0308C21.7333 0 28 6.26667 28 13.9692V14.0308C28 21.7333 21.7333 28 14.0308 28ZM13.9692 0.94777C6.78888 0.94777 0.947771 6.78889 0.947771 13.9692V14.0308C0.947771 21.2111 6.78888 27.0522 13.9692 27.0522H14.0308C21.2111 27.0522 27.0522 21.2111 27.0522 14.0308V13.9692C27.0522 6.78889 21.2111 0.94777 14.0308 0.94777H13.9692Z" fill="#EBEBEB"/>
<path d="M17.2054 12.1217C17.204 12.2591 17.1898 12.3965 17.177 12.5339C17.1727 12.5792 17.1713 12.6252 17.1706 12.6705C17.1691 12.7489 17.231 12.8201 17.3086 12.8151C17.3456 12.8129 17.3833 12.8029 17.4188 12.7906C17.5376 12.7482 17.655 12.7029 17.773 12.6576C17.8797 12.6158 17.9886 12.5784 18.0988 12.5482C18.219 12.5152 18.3392 12.4907 18.4616 12.5108C18.7105 12.5518 18.8727 12.823 18.7817 13.0611C18.7561 13.128 18.7169 13.1855 18.67 13.2387C18.6053 13.3114 18.532 13.3732 18.4523 13.4279C18.3584 13.4919 18.2638 13.5545 18.1692 13.6178C18.0113 13.7228 17.8534 13.8271 17.6962 13.9335C17.6308 13.9774 17.5675 14.0241 17.5056 14.0723C17.4715 14.0989 17.4394 14.1299 17.4103 14.1622C17.3548 14.2248 17.3242 14.3046 17.3292 14.3881C17.3342 14.4765 17.3491 14.5628 17.3733 14.6477C17.448 14.9124 17.5625 15.1584 17.7012 15.3936C18.0732 16.0215 18.6003 16.512 19.2277 16.9126C19.3998 17.0227 19.584 17.1119 19.7654 17.2061C19.791 17.2197 19.8159 17.2334 19.8408 17.2485C19.8657 17.2636 19.8878 17.2837 19.9041 17.3082C19.9297 17.3449 19.9333 17.3837 19.9112 17.424C19.8927 17.4585 19.8657 17.4851 19.8365 17.5096C19.8038 17.5369 19.7682 17.5599 19.7313 17.5808C19.5193 17.7023 19.2917 17.793 19.0562 17.8563C18.9424 17.8872 18.8286 17.9196 18.7155 17.9534C18.6458 17.9742 18.5804 18.0052 18.5156 18.039C18.4068 18.0958 18.3449 18.1871 18.3222 18.3058C18.3094 18.372 18.3015 18.4396 18.2894 18.5058C18.2596 18.6733 18.1998 18.7345 18.0377 18.7632C17.9808 18.7733 17.9224 18.7791 17.8648 18.7827C17.7197 18.7906 17.5746 18.7949 17.4295 18.8028C17.4252 18.8028 17.4209 18.8028 17.4174 18.8035C16.8377 18.838 16.2772 19.0258 15.78 19.3293C15.7537 19.3451 15.7273 19.3616 15.7003 19.3775C15.499 19.5005 15.2942 19.6177 15.0744 19.704C14.829 19.8004 14.5757 19.8579 14.3133 19.8817C14.0921 19.9018 13.8716 19.8989 13.6518 19.8738C13.3224 19.8364 13.0102 19.7393 12.715 19.5868C12.5777 19.5156 12.4454 19.4365 12.3145 19.3552C12.3074 19.3509 12.3003 19.3465 12.2925 19.3415C11.7704 19.02 11.1764 18.8251 10.5654 18.7999C10.5612 18.7999 10.5569 18.7999 10.5526 18.7999C10.4246 18.7949 10.2973 18.7898 10.1692 18.7819C10.0945 18.7776 10.0199 18.7675 9.94659 18.7474C9.85341 18.7215 9.78584 18.6388 9.76805 18.5432C9.7581 18.4907 9.75027 18.4382 9.74102 18.3856C9.73889 18.3741 9.73889 18.3619 9.73675 18.3504C9.71541 18.1965 9.64002 18.0836 9.49704 18.0181C9.40955 17.9778 9.31994 17.9455 9.22747 17.9196C9.06813 17.875 8.90738 17.8354 8.7516 17.7786C8.61432 17.729 8.48202 17.67 8.3547 17.5995C8.31629 17.5786 8.27929 17.5549 8.24373 17.5305C8.21955 17.5139 8.19679 17.4952 8.17687 17.4743C8.11285 17.4067 8.11925 17.3183 8.19181 17.2607C8.23377 17.2269 8.28285 17.2046 8.33051 17.1809C8.66268 17.0162 8.9778 16.8234 9.27085 16.5947C9.71328 16.2502 10.0881 15.8424 10.3719 15.3511C10.473 15.1756 10.5569 14.9894 10.6259 14.798C10.6714 14.6715 10.7084 14.5449 10.7176 14.4118C10.724 14.314 10.6913 14.2169 10.6252 14.1457C10.5775 14.0946 10.522 14.0536 10.4658 14.0126C10.3819 13.9522 10.2973 13.8925 10.2119 13.8357C10.0284 13.7134 9.84416 13.5933 9.66065 13.4718C9.58027 13.4185 9.50273 13.361 9.43302 13.2941C9.38252 13.2452 9.337 13.1927 9.30072 13.1316C9.22533 13.0035 9.21964 12.8719 9.27583 12.7367C9.30926 12.6561 9.37186 12.5878 9.4501 12.5511C9.56178 12.4993 9.67843 12.4929 9.7958 12.5123C9.92241 12.5331 10.044 12.5727 10.1642 12.6166C10.2873 12.6612 10.4082 12.7101 10.5306 12.7561C10.5875 12.7777 10.6451 12.7993 10.7055 12.8086C10.7198 12.8108 10.734 12.8151 10.7482 12.8144C10.8186 12.8122 10.877 12.7892 10.8763 12.6935C10.8763 12.6475 10.8748 12.6007 10.8727 12.5547C10.862 12.3246 10.8485 12.0944 10.8428 11.8642C10.83 11.3162 10.8322 10.7659 10.9737 10.2337C11.0605 9.90789 11.2106 9.60509 11.4133 9.33609C11.8337 8.77724 12.3885 8.42264 13.0521 8.23348C13.4149 8.12991 13.7855 8.09611 14.1611 8.10761C14.516 8.1184 14.8695 8.17883 15.2052 8.2975C15.6036 8.43848 15.9656 8.64273 16.2736 8.93259C16.6236 9.262 16.8932 9.64681 17.0397 10.1129C17.1058 10.3236 17.1478 10.5394 17.1734 10.758C17.2268 11.2104 17.2118 11.6657 17.2076 12.1203L17.2054 12.1217Z" fill="white"/>
</svg>
