<svg width="28" height="28" viewBox="0 0 28 28" fill="none" xmlns="http://www.w3.org/2000/svg">
<path d="M14.0308 28H13.9692C6.26667 28 0 21.7333 0 14.0308V13.9692C0 6.26665 6.26667 0 13.9692 0H14.0308C21.7333 0 28 6.26665 28 13.9692V14.0308C28 21.7333 21.7333 28 14.0308 28ZM13.9692 0.947771C6.78889 0.947771 0.947771 6.78888 0.947771 13.9692V14.0308C0.947771 21.2111 6.78889 27.0522 13.9692 27.0522H14.0308C21.2111 27.0522 27.0522 21.2111 27.0522 14.0308V13.9692C27.0522 6.78888 21.2111 0.947771 14.0308 0.947771H13.9692Z" fill="#EBEBEB"/>
<path d="M8.89067 8.84229L13.4438 14.9297L8.8623 19.8792H9.89371L13.9052 15.546L17.146 19.8792H20.6552L15.8462 13.4493L20.1108 8.84229H19.0794L15.3855 12.833L12.4006 8.84229H8.89135H8.89067ZM10.407 9.60184H12.0188L19.1376 19.1196H17.5258L10.407 9.60184Z" fill="white"/>
</svg>
