<svg width="8" height="9" viewBox="0 0 8 9" fill="none" xmlns="http://www.w3.org/2000/svg">
<g clip-path="url(#clip0_153_10318)">
<path d="M4.21953 6.569L7.90953 2.86877C8.03036 2.74753 8.03016 2.55125 7.90891 2.43022C7.78767 2.30928 7.59128 2.3096 7.47036 2.43085L3.99999 5.91083L0.529626 2.43072C0.408689 2.30949 0.212424 2.30917 0.0911741 2.4301C0.0303931 2.49077 2.3741e-06 2.57025 2.37063e-06 2.64974C2.36716e-06 2.72902 0.03019 2.80819 0.090549 2.86875L3.78046 6.569C3.83855 6.62739 3.91761 6.66016 3.99999 6.66016C4.08236 6.66016 4.16133 6.6273 4.21953 6.569Z" fill="black"/>
</g>
<defs>
<clipPath id="clip0_153_10318">
<rect width="8" height="8" fill="white" transform="translate(8 0.5) rotate(90)"/>
</clipPath>
</defs>
</svg>
