<svg width="16" height="17" viewBox="0 0 16 17" fill="none" xmlns="http://www.w3.org/2000/svg">
<path d="M5.6892 3.81339C5.55066 3.81035 5.41462 3.85051 5.29998 3.92835C5.18535 4.0062 5.09781 4.11788 5.04955 4.24777C5.00129 4.37767 4.9947 4.51935 5.03069 4.65316C5.06669 4.78697 5.14348 4.90619 5.2504 4.99434L9.32982 8.48913L5.2504 11.9827C5.17644 12.037 5.1145 12.1061 5.06846 12.1855C5.02242 12.2649 4.99327 12.3529 4.98284 12.4441C4.9724 12.5353 4.98091 12.6277 5.00783 12.7154C5.03474 12.8032 5.07949 12.8844 5.13926 12.9541C5.19903 13.0238 5.27254 13.0803 5.35518 13.1202C5.43783 13.1601 5.52783 13.1825 5.61954 13.1861C5.71126 13.1896 5.80272 13.1742 5.8882 13.1408C5.97367 13.1074 6.05132 13.0566 6.11628 12.9918L10.7869 8.99563C10.8602 8.93304 10.9191 8.85535 10.9595 8.7678C10.9999 8.68024 11.0208 8.58494 11.0208 8.48851C11.0208 8.39209 10.9999 8.29679 10.9595 8.20923C10.9191 8.12167 10.8602 8.04391 10.7869 7.98132L6.11628 3.98133C5.9983 3.87653 5.84696 3.81711 5.6892 3.81339Z" fill="white"/>
</svg>
