<svg width="24" height="25" viewBox="0 0 24 25" fill="none" xmlns="http://www.w3.org/2000/svg">
<path fill-rule="evenodd" clip-rule="evenodd" d="M5.65068 9.41602L4.85068 20.539H19.0367L18.2367 9.41602H5.65068ZM20.0987 7.41602H3.78968L2.85668 20.396C2.83704 20.67 2.87405 20.9451 2.96542 21.2042C3.05678 21.4632 3.20053 21.7007 3.3877 21.9018C3.57488 22.1028 3.80147 22.2632 4.05334 22.3728C4.30522 22.4825 4.57698 22.539 4.85168 22.539H19.0367C19.3115 22.539 19.5833 22.4824 19.8353 22.3727C20.0872 22.263 20.3139 22.1026 20.501 21.9014C20.6882 21.7003 20.832 21.4627 20.9233 21.2035C21.0146 20.9443 21.0515 20.6691 21.0317 20.395L20.0987 7.41602Z" fill="black"/>
<path fill-rule="evenodd" clip-rule="evenodd" d="M11.2684 5.14011C11.0063 5.13998 10.7468 5.19153 10.5046 5.2918C10.2624 5.39208 10.0424 5.53911 9.85711 5.7245C9.67182 5.90988 9.5249 6.12998 9.42474 6.3722C9.32459 6.61442 9.27317 6.87401 9.27344 7.13611V7.82111C9.27344 8.08633 9.16808 8.34068 8.98054 8.52822C8.79301 8.71576 8.53865 8.82111 8.27344 8.82111C8.00822 8.82111 7.75387 8.71576 7.56633 8.52822C7.37879 8.34068 7.27344 8.08633 7.27344 7.82111V7.13611C7.27331 6.61145 7.37655 6.09189 7.57727 5.60714C7.77799 5.12238 8.07226 4.68192 8.44325 4.31093C8.81425 3.93993 9.25471 3.64567 9.73946 3.44495C10.2242 3.24423 10.7438 3.14098 11.2684 3.14111H12.6334C13.6949 3.14138 14.7128 3.56324 15.4633 4.31392C16.2138 5.0646 16.6354 6.08263 16.6354 7.14411V7.82111C16.6354 8.08633 16.5301 8.34068 16.3425 8.52822C16.155 8.71576 15.9007 8.82111 15.6354 8.82111C15.3702 8.82111 15.1159 8.71576 14.9283 8.52822C14.7408 8.34068 14.6354 8.08633 14.6354 7.82111V7.14411C14.6354 6.61306 14.4245 6.10374 14.0491 5.72813C13.6737 5.35253 13.1645 5.14138 12.6334 5.14111" fill="black"/>
</svg>
