<svg width="16" height="16" viewBox="0 0 16 16" fill="none" xmlns="http://www.w3.org/2000/svg">
<path d="M9.76187 8L15.7444 2.01717C15.909 1.85248 15.9998 1.63276 16.0001 1.39846C16.0001 1.16404 15.9093 0.944061 15.7444 0.779628L15.2202 0.255496C15.0554 0.0904124 14.8356 0 14.6011 0C14.3669 0 14.1472 0.0904124 13.9824 0.255496L7.9998 6.23793L2.01698 0.255496C1.85241 0.0904124 1.63256 0 1.39814 0C1.16398 0 0.944126 0.0904124 0.779562 0.255496L0.25504 0.779628C-0.0863155 1.12098 -0.0863155 1.67621 0.25504 2.01717L6.23774 8L0.25504 13.9826C0.0903465 14.1475 -0.000326114 14.3672 -0.000326114 14.6015C-0.000326114 14.8358 0.0903465 15.0555 0.25504 15.2204L0.779432 15.7445C0.943996 15.9095 1.16398 16 1.39801 16C1.63243 16 1.85228 15.9095 2.01685 15.7445L7.99967 9.76194L13.9822 15.7445C14.1471 15.9095 14.3668 16 14.601 16H14.6012C14.8355 16 15.0552 15.9095 15.22 15.7445L15.7443 15.2204C15.9089 15.0557 15.9997 14.8358 15.9997 14.6015C15.9997 14.3672 15.9089 14.1475 15.7443 13.9827L9.76187 8Z" fill="black"/>
</svg>
