<svg width="24" height="25" viewBox="0 0 24 25" fill="none" xmlns="http://www.w3.org/2000/svg">
<g clip-path="url(#clip0_153_10337)">
<path d="M22.0718 4.46959C19.4616 1.8601 15.2154 1.8601 12.6059 4.46959L11.9998 5.07534L11.394 4.46959C8.78456 1.85975 4.53796 1.85975 1.92847 4.46959C-0.628033 7.02609 -0.644634 11.0784 1.88997 13.896C4.20171 16.4648 11.0196 22.0147 11.3089 22.2496C11.5053 22.4093 11.7416 22.487 11.9765 22.487C11.9843 22.487 11.992 22.487 11.9994 22.4866C12.2424 22.4979 12.4872 22.4146 12.69 22.2496C12.9792 22.0147 19.7979 16.4648 22.1103 13.8956C24.6446 11.0784 24.628 7.02609 22.0718 4.46959ZM20.535 12.4782C18.7326 14.4805 13.7782 18.6102 11.9994 20.0756C10.2207 18.6105 5.26733 14.4812 3.46527 12.4785C1.69712 10.5133 1.68052 7.71449 3.42677 5.96824C4.31862 5.07675 5.48985 4.63065 6.66108 4.63065C7.83231 4.63065 9.00354 5.0764 9.89539 5.96824L11.2277 7.30053C11.3863 7.45912 11.5862 7.55378 11.796 7.58698C12.1365 7.6601 12.5059 7.56508 12.7708 7.30089L14.1038 5.96824C15.8879 4.1849 18.7898 4.18526 20.5728 5.96824C22.3191 7.71449 22.3025 10.5133 20.535 12.4782Z" fill="black"/>
</g>
<defs>
<clipPath id="clip0_153_10337">
<rect width="24" height="24" fill="white" transform="translate(0 0.5)"/>
</clipPath>
</defs>
</svg>
