<svg width="24" height="25" viewBox="0 0 24 25" fill="none" xmlns="http://www.w3.org/2000/svg">
<path fill-rule="evenodd" clip-rule="evenodd" d="M15.9998 10.992C15.9998 12.5439 15.3833 14.0322 14.2859 15.1296C13.1885 16.227 11.7002 16.8435 10.1483 16.8435C8.59635 16.8435 7.108 16.227 6.01063 15.1296C4.91326 14.0322 4.29676 12.5439 4.29676 10.992C4.29676 9.44019 4.9132 7.95196 6.01048 6.85469C7.10775 5.75741 8.59598 5.14097 10.1478 5.14097C11.6995 5.14097 13.1878 5.75741 14.285 6.85469C15.3823 7.95196 15.9988 9.44019 15.9988 10.992H15.9998ZM15.1088 17.078C13.5619 18.3386 11.5931 18.963 9.6025 18.8241C7.61187 18.6852 5.74881 17.7936 4.392 16.3304C3.03519 14.8672 2.28646 12.9422 2.29798 10.9468C2.30951 8.95135 3.08042 7.03518 4.45404 5.58774C5.82766 4.14031 7.70089 3.27023 9.69299 3.15437C11.6851 3.0385 13.6466 3.68554 15.1787 4.96397C16.7109 6.2424 17.6987 8.05628 17.9415 10.0369C18.1843 12.0176 17.6638 14.0163 16.4858 15.627L20.9018 20.042C21.0893 20.2296 21.1946 20.4841 21.1945 20.7493C21.1944 21.0146 21.0889 21.269 20.9013 21.4565C20.7136 21.644 20.4592 21.7493 20.1939 21.7492C19.9286 21.7491 19.6743 21.6436 19.4868 21.456L15.1088 17.078Z" fill="black"/>
</svg>
