<svg width="24" height="25" viewBox="0 0 24 25" fill="none" xmlns="http://www.w3.org/2000/svg">
<path fill-rule="evenodd" clip-rule="evenodd" d="M15.2216 8.04395C15.2216 8.90326 14.8802 9.72736 14.2726 10.335C13.665 10.9426 12.8409 11.284 11.9816 11.284C11.1223 11.284 10.2982 10.9426 9.69054 10.335C9.08292 9.72736 8.74156 8.90326 8.74156 8.04395C8.74156 7.18465 9.08292 6.36055 9.69054 5.75293C10.2982 5.14531 11.1223 4.80395 11.9816 4.80395C12.8409 4.80395 13.665 5.14531 14.2726 5.75293C14.8802 6.36055 15.2216 7.18465 15.2216 8.04395ZM17.2216 8.04395C17.2216 8.73208 17.086 9.41347 16.8227 10.0492C16.5594 10.685 16.1734 11.2626 15.6868 11.7492C15.2002 12.2358 14.6226 12.6217 13.9868 12.8851C13.3511 13.1484 12.6697 13.284 11.9816 13.284C11.2934 13.284 10.612 13.1484 9.9763 12.8851C9.34056 12.6217 8.7629 12.2358 8.27632 11.7492C7.78974 11.2626 7.40377 10.685 7.14043 10.0492C6.8771 9.41347 6.74156 8.73208 6.74156 8.04395C6.74156 6.65422 7.29363 5.32141 8.27632 4.33872C9.25901 3.35602 10.5918 2.80396 11.9816 2.80396C13.3713 2.80396 14.7041 3.35602 15.6868 4.33872C16.6695 5.32141 17.2216 6.65422 17.2216 8.04395ZM4.60156 21.746C4.60156 19.962 5.38156 18.574 6.66656 17.603C7.97656 16.614 9.84656 16.039 11.9846 16.039C14.1236 16.039 15.9936 16.614 17.3026 17.603C18.5886 18.573 19.3686 19.963 19.3686 21.746C19.3686 22.0112 19.4739 22.2655 19.6615 22.4531C19.849 22.6406 20.1033 22.746 20.3686 22.746C20.6338 22.746 20.8881 22.6406 21.0757 22.4531C21.2632 22.2655 21.3686 22.0112 21.3686 21.746C21.3686 19.296 20.2616 17.331 18.5086 16.007C16.7786 14.701 14.4566 14.039 11.9846 14.039C9.51256 14.039 7.19056 14.701 5.46156 16.007C3.70756 17.331 2.60156 19.297 2.60156 21.746C2.60156 22.0112 2.70692 22.2655 2.89446 22.4531C3.08199 22.6406 3.33635 22.746 3.60156 22.746C3.86678 22.746 4.12113 22.6406 4.30867 22.4531C4.49621 22.2655 4.60156 22.0112 4.60156 21.746Z" fill="black"/>
</svg>
